<mxfile host="app.diagrams.net" modified="2024-04-01T02:17:27.138Z" agent="Mozilla/5.0 (Windows NT 10.0; Win64; x64) AppleWebKit/537.36 (KHTML, like Gecko) Chrome/123.0.0.0 Safari/537.36" etag="Wb856tfy2V7sC9XrJvBP" version="24.2.1" type="device">
  <diagram name="페이지-1" id="zo6PBHOif4JfisIJZf4e">
    <mxGraphModel dx="472" dy="778" grid="1" gridSize="10" guides="1" tooltips="1" connect="1" arrows="1" fold="1" page="1" pageScale="1" pageWidth="827" pageHeight="1169" math="0" shadow="0">
      <root>
        <mxCell id="0" />
        <mxCell id="1" parent="0" />
        <mxCell id="wN71H9yPLBmTXvymEIwc-36" value="리스트 페이지&amp;nbsp;&lt;div&gt;시작&lt;/div&gt;" style="strokeWidth=2;html=1;shape=mxgraph.flowchart.terminator;whiteSpace=wrap;" vertex="1" parent="1">
          <mxGeometry x="364" y="20" width="100" height="60" as="geometry" />
        </mxCell>
        <mxCell id="wN71H9yPLBmTXvymEIwc-37" value="DB 접속" style="rounded=0;whiteSpace=wrap;html=1;" vertex="1" parent="1">
          <mxGeometry x="354" y="120" width="120" height="60" as="geometry" />
        </mxCell>
        <mxCell id="wN71H9yPLBmTXvymEIwc-39" value="DB 접속&lt;div&gt;예외 발생&lt;/div&gt;" style="rhombus;whiteSpace=wrap;html=1;" vertex="1" parent="1">
          <mxGeometry x="374" y="250" width="80" height="80" as="geometry" />
        </mxCell>
        <mxCell id="wN71H9yPLBmTXvymEIwc-40" value="" style="endArrow=classic;html=1;rounded=0;exitX=0.5;exitY=1;exitDx=0;exitDy=0;entryX=0.5;entryY=0;entryDx=0;entryDy=0;" edge="1" parent="1" source="wN71H9yPLBmTXvymEIwc-37" target="wN71H9yPLBmTXvymEIwc-39">
          <mxGeometry width="50" height="50" relative="1" as="geometry">
            <mxPoint x="420" y="220" as="sourcePoint" />
            <mxPoint x="490" y="290" as="targetPoint" />
            <Array as="points" />
          </mxGeometry>
        </mxCell>
        <mxCell id="wN71H9yPLBmTXvymEIwc-42" value="" style="endArrow=classic;html=1;rounded=0;exitX=0.5;exitY=1;exitDx=0;exitDy=0;exitPerimeter=0;" edge="1" parent="1" source="wN71H9yPLBmTXvymEIwc-36" target="wN71H9yPLBmTXvymEIwc-37">
          <mxGeometry width="50" height="50" relative="1" as="geometry">
            <mxPoint x="440" y="340" as="sourcePoint" />
            <mxPoint x="490" y="290" as="targetPoint" />
          </mxGeometry>
        </mxCell>
        <mxCell id="wN71H9yPLBmTXvymEIwc-44" value="예외 메세지 출력" style="strokeWidth=2;html=1;shape=mxgraph.flowchart.document2;whiteSpace=wrap;size=0.25;" vertex="1" parent="1">
          <mxGeometry x="610" y="440" width="100" height="60" as="geometry" />
        </mxCell>
        <mxCell id="wN71H9yPLBmTXvymEIwc-47" value="리스트 페이지&amp;nbsp;&lt;div&gt;종료&lt;/div&gt;" style="strokeWidth=2;html=1;shape=mxgraph.flowchart.terminator;whiteSpace=wrap;" vertex="1" parent="1">
          <mxGeometry x="364" y="1100" width="100" height="60" as="geometry" />
        </mxCell>
        <mxCell id="wN71H9yPLBmTXvymEIwc-48" value="" style="endArrow=classic;html=1;rounded=0;exitX=0.49;exitY=0.933;exitDx=0;exitDy=0;exitPerimeter=0;entryX=1;entryY=0.5;entryDx=0;entryDy=0;entryPerimeter=0;" edge="1" parent="1" source="wN71H9yPLBmTXvymEIwc-44" target="wN71H9yPLBmTXvymEIwc-47">
          <mxGeometry width="50" height="50" relative="1" as="geometry">
            <mxPoint x="470" y="340" as="sourcePoint" />
            <mxPoint x="520" y="290" as="targetPoint" />
            <Array as="points">
              <mxPoint x="660" y="760" />
              <mxPoint x="660" y="630" />
              <mxPoint x="660" y="1130" />
            </Array>
          </mxGeometry>
        </mxCell>
        <mxCell id="wN71H9yPLBmTXvymEIwc-51" value="page 파리미터&amp;nbsp;&lt;div&gt;존재&lt;/div&gt;" style="strokeWidth=2;html=1;shape=mxgraph.flowchart.decision;whiteSpace=wrap;" vertex="1" parent="1">
          <mxGeometry x="364" y="370" width="100" height="100" as="geometry" />
        </mxCell>
        <mxCell id="wN71H9yPLBmTXvymEIwc-54" value="1 획득" style="shape=parallelogram;perimeter=parallelogramPerimeter;whiteSpace=wrap;html=1;fixedSize=1;" vertex="1" parent="1">
          <mxGeometry x="454" y="490" width="120" height="60" as="geometry" />
        </mxCell>
        <mxCell id="wN71H9yPLBmTXvymEIwc-55" value="page 획득" style="shape=parallelogram;perimeter=parallelogramPerimeter;whiteSpace=wrap;html=1;fixedSize=1;" vertex="1" parent="1">
          <mxGeometry x="244" y="490" width="120" height="60" as="geometry" />
        </mxCell>
        <mxCell id="wN71H9yPLBmTXvymEIwc-57" value="" style="endArrow=classic;html=1;rounded=0;exitX=0.73;exitY=0.79;exitDx=0;exitDy=0;exitPerimeter=0;entryX=0.567;entryY=0;entryDx=0;entryDy=0;entryPerimeter=0;" edge="1" parent="1" source="wN71H9yPLBmTXvymEIwc-51" target="wN71H9yPLBmTXvymEIwc-54">
          <mxGeometry relative="1" as="geometry">
            <mxPoint x="450" y="620" as="sourcePoint" />
            <mxPoint x="520" y="500" as="targetPoint" />
            <Array as="points">
              <mxPoint x="520" y="449" />
            </Array>
          </mxGeometry>
        </mxCell>
        <mxCell id="wN71H9yPLBmTXvymEIwc-58" value="NO" style="edgeLabel;resizable=0;html=1;;align=center;verticalAlign=middle;" connectable="0" vertex="1" parent="wN71H9yPLBmTXvymEIwc-57">
          <mxGeometry relative="1" as="geometry">
            <mxPoint x="11" y="1" as="offset" />
          </mxGeometry>
        </mxCell>
        <mxCell id="wN71H9yPLBmTXvymEIwc-59" value="" style="endArrow=classic;html=1;rounded=0;entryX=0.5;entryY=0;entryDx=0;entryDy=0;exitX=0.19;exitY=0.73;exitDx=0;exitDy=0;exitPerimeter=0;" edge="1" parent="1" source="wN71H9yPLBmTXvymEIwc-51" target="wN71H9yPLBmTXvymEIwc-55">
          <mxGeometry relative="1" as="geometry">
            <mxPoint x="360" y="450" as="sourcePoint" />
            <mxPoint x="364" y="450" as="targetPoint" />
            <Array as="points">
              <mxPoint x="304" y="443" />
            </Array>
          </mxGeometry>
        </mxCell>
        <mxCell id="wN71H9yPLBmTXvymEIwc-60" value="YES" style="edgeLabel;resizable=0;html=1;;align=center;verticalAlign=middle;" connectable="0" vertex="1" parent="wN71H9yPLBmTXvymEIwc-59">
          <mxGeometry relative="1" as="geometry" />
        </mxCell>
        <mxCell id="wN71H9yPLBmTXvymEIwc-62" value="DB 에서 게시글 수&lt;div&gt;획득&lt;/div&gt;" style="rounded=0;whiteSpace=wrap;html=1;" vertex="1" parent="1">
          <mxGeometry x="354" y="570" width="120" height="60" as="geometry" />
        </mxCell>
        <mxCell id="wN71H9yPLBmTXvymEIwc-64" value="" style="endArrow=classic;html=1;rounded=0;entryX=0;entryY=0.5;entryDx=0;entryDy=0;exitX=0.5;exitY=1;exitDx=0;exitDy=0;" edge="1" parent="1" source="wN71H9yPLBmTXvymEIwc-55" target="wN71H9yPLBmTXvymEIwc-62">
          <mxGeometry width="50" height="50" relative="1" as="geometry">
            <mxPoint x="470" y="640" as="sourcePoint" />
            <mxPoint x="520" y="590" as="targetPoint" />
            <Array as="points">
              <mxPoint x="304" y="600" />
            </Array>
          </mxGeometry>
        </mxCell>
        <mxCell id="wN71H9yPLBmTXvymEIwc-65" value="" style="endArrow=classic;html=1;rounded=0;entryX=0.5;entryY=0;entryDx=0;entryDy=0;entryPerimeter=0;exitX=0.5;exitY=1;exitDx=0;exitDy=0;" edge="1" parent="1" source="wN71H9yPLBmTXvymEIwc-39" target="wN71H9yPLBmTXvymEIwc-51">
          <mxGeometry relative="1" as="geometry">
            <mxPoint x="450" y="620" as="sourcePoint" />
            <mxPoint x="550" y="620" as="targetPoint" />
          </mxGeometry>
        </mxCell>
        <mxCell id="wN71H9yPLBmTXvymEIwc-66" value="NO" style="edgeLabel;resizable=0;html=1;;align=center;verticalAlign=middle;" connectable="0" vertex="1" parent="wN71H9yPLBmTXvymEIwc-65">
          <mxGeometry relative="1" as="geometry" />
        </mxCell>
        <mxCell id="wN71H9yPLBmTXvymEIwc-70" value="" style="endArrow=classic;html=1;rounded=0;entryX=0.5;entryY=0;entryDx=0;entryDy=0;entryPerimeter=0;" edge="1" parent="1" target="wN71H9yPLBmTXvymEIwc-44">
          <mxGeometry relative="1" as="geometry">
            <mxPoint x="454" y="289.5" as="sourcePoint" />
            <mxPoint x="554" y="289.5" as="targetPoint" />
            <Array as="points">
              <mxPoint x="660" y="290" />
            </Array>
          </mxGeometry>
        </mxCell>
        <mxCell id="wN71H9yPLBmTXvymEIwc-71" value="YES" style="edgeLabel;resizable=0;html=1;;align=center;verticalAlign=middle;" connectable="0" vertex="1" parent="wN71H9yPLBmTXvymEIwc-70">
          <mxGeometry relative="1" as="geometry" />
        </mxCell>
        <mxCell id="wN71H9yPLBmTXvymEIwc-72" value="페이지 관련 설정&lt;div&gt;셋팅&lt;/div&gt;" style="rounded=0;whiteSpace=wrap;html=1;" vertex="1" parent="1">
          <mxGeometry x="354" y="750" width="120" height="60" as="geometry" />
        </mxCell>
        <mxCell id="wN71H9yPLBmTXvymEIwc-96" style="edgeStyle=orthogonalEdgeStyle;rounded=0;orthogonalLoop=1;jettySize=auto;html=1;" edge="1" parent="1" source="wN71H9yPLBmTXvymEIwc-73" target="wN71H9yPLBmTXvymEIwc-93">
          <mxGeometry relative="1" as="geometry" />
        </mxCell>
        <mxCell id="wN71H9yPLBmTXvymEIwc-73" value="DB에서 게시글 조회" style="rounded=0;whiteSpace=wrap;html=1;" vertex="1" parent="1">
          <mxGeometry x="354" y="840" width="120" height="60" as="geometry" />
        </mxCell>
        <mxCell id="wN71H9yPLBmTXvymEIwc-74" value="화면에 출력" style="shape=document;whiteSpace=wrap;html=1;boundedLbl=1;" vertex="1" parent="1">
          <mxGeometry x="360" y="1010" width="120" height="80" as="geometry" />
        </mxCell>
        <mxCell id="wN71H9yPLBmTXvymEIwc-76" value="" style="endArrow=classic;html=1;rounded=0;exitX=0.5;exitY=1;exitDx=0;exitDy=0;" edge="1" parent="1" source="wN71H9yPLBmTXvymEIwc-72">
          <mxGeometry width="50" height="50" relative="1" as="geometry">
            <mxPoint x="470" y="940" as="sourcePoint" />
            <mxPoint x="414" y="840" as="targetPoint" />
          </mxGeometry>
        </mxCell>
        <mxCell id="wN71H9yPLBmTXvymEIwc-78" value="" style="endArrow=classic;html=1;rounded=0;entryX=0.5;entryY=0;entryDx=0;entryDy=0;entryPerimeter=0;exitX=0.45;exitY=0.863;exitDx=0;exitDy=0;exitPerimeter=0;" edge="1" parent="1" source="wN71H9yPLBmTXvymEIwc-74" target="wN71H9yPLBmTXvymEIwc-47">
          <mxGeometry width="50" height="50" relative="1" as="geometry">
            <mxPoint x="418" y="984" as="sourcePoint" />
            <mxPoint x="520" y="890" as="targetPoint" />
          </mxGeometry>
        </mxCell>
        <mxCell id="wN71H9yPLBmTXvymEIwc-82" value="게시글 획득&amp;nbsp;&lt;div&gt;예외&amp;nbsp;&lt;span style=&quot;background-color: initial;&quot;&gt;발생&lt;/span&gt;&lt;/div&gt;" style="rhombus;whiteSpace=wrap;html=1;" vertex="1" parent="1">
          <mxGeometry x="359" y="650" width="110" height="80" as="geometry" />
        </mxCell>
        <mxCell id="wN71H9yPLBmTXvymEIwc-86" value="" style="endArrow=classic;html=1;rounded=0;entryX=0.5;entryY=0;entryDx=0;entryDy=0;exitX=0.5;exitY=1;exitDx=0;exitDy=0;" edge="1" parent="1" source="wN71H9yPLBmTXvymEIwc-62" target="wN71H9yPLBmTXvymEIwc-82">
          <mxGeometry width="50" height="50" relative="1" as="geometry">
            <mxPoint x="420" y="670" as="sourcePoint" />
            <mxPoint x="460" y="680" as="targetPoint" />
          </mxGeometry>
        </mxCell>
        <mxCell id="wN71H9yPLBmTXvymEIwc-87" value="" style="endArrow=classic;html=1;rounded=0;" edge="1" parent="1">
          <mxGeometry relative="1" as="geometry">
            <mxPoint x="469" y="690" as="sourcePoint" />
            <mxPoint x="660" y="830" as="targetPoint" />
            <Array as="points">
              <mxPoint x="660" y="690" />
            </Array>
          </mxGeometry>
        </mxCell>
        <mxCell id="wN71H9yPLBmTXvymEIwc-88" value="YES" style="edgeLabel;resizable=0;html=1;;align=center;verticalAlign=middle;" connectable="0" vertex="1" parent="wN71H9yPLBmTXvymEIwc-87">
          <mxGeometry relative="1" as="geometry">
            <mxPoint x="-17" as="offset" />
          </mxGeometry>
        </mxCell>
        <mxCell id="wN71H9yPLBmTXvymEIwc-90" value="" style="endArrow=classic;html=1;rounded=0;exitX=0.5;exitY=1;exitDx=0;exitDy=0;entryX=0.5;entryY=0;entryDx=0;entryDy=0;" edge="1" parent="1" source="wN71H9yPLBmTXvymEIwc-82" target="wN71H9yPLBmTXvymEIwc-72">
          <mxGeometry relative="1" as="geometry">
            <mxPoint x="490" y="800" as="sourcePoint" />
            <mxPoint x="590" y="800" as="targetPoint" />
          </mxGeometry>
        </mxCell>
        <mxCell id="wN71H9yPLBmTXvymEIwc-91" value="NO" style="edgeLabel;resizable=0;html=1;;align=center;verticalAlign=middle;" connectable="0" vertex="1" parent="wN71H9yPLBmTXvymEIwc-90">
          <mxGeometry relative="1" as="geometry" />
        </mxCell>
        <mxCell id="wN71H9yPLBmTXvymEIwc-93" value="게시글 획득&lt;div&gt;예외 발생&lt;/div&gt;" style="rhombus;whiteSpace=wrap;html=1;" vertex="1" parent="1">
          <mxGeometry x="354" y="920" width="120" height="70" as="geometry" />
        </mxCell>
        <mxCell id="wN71H9yPLBmTXvymEIwc-94" value="" style="endArrow=classic;html=1;rounded=0;exitX=0.5;exitY=1;exitDx=0;exitDy=0;entryX=1;entryY=0.5;entryDx=0;entryDy=0;" edge="1" parent="1" source="wN71H9yPLBmTXvymEIwc-54" target="wN71H9yPLBmTXvymEIwc-62">
          <mxGeometry width="50" height="50" relative="1" as="geometry">
            <mxPoint x="410" y="630" as="sourcePoint" />
            <mxPoint x="460" y="580" as="targetPoint" />
            <Array as="points">
              <mxPoint x="514" y="600" />
            </Array>
          </mxGeometry>
        </mxCell>
        <mxCell id="wN71H9yPLBmTXvymEIwc-97" value="" style="endArrow=classic;html=1;rounded=0;" edge="1" parent="1">
          <mxGeometry relative="1" as="geometry">
            <mxPoint x="474" y="954.5" as="sourcePoint" />
            <mxPoint x="660" y="1080" as="targetPoint" />
            <Array as="points">
              <mxPoint x="660" y="955" />
            </Array>
          </mxGeometry>
        </mxCell>
        <mxCell id="wN71H9yPLBmTXvymEIwc-98" value="YES" style="edgeLabel;resizable=0;html=1;;align=center;verticalAlign=middle;" connectable="0" vertex="1" parent="wN71H9yPLBmTXvymEIwc-97">
          <mxGeometry relative="1" as="geometry" />
        </mxCell>
        <mxCell id="wN71H9yPLBmTXvymEIwc-99" value="" style="endArrow=classic;html=1;rounded=0;exitX=0.5;exitY=1;exitDx=0;exitDy=0;entryX=0.433;entryY=-0.012;entryDx=0;entryDy=0;entryPerimeter=0;" edge="1" parent="1" source="wN71H9yPLBmTXvymEIwc-93" target="wN71H9yPLBmTXvymEIwc-74">
          <mxGeometry relative="1" as="geometry">
            <mxPoint x="450" y="989" as="sourcePoint" />
            <mxPoint x="550" y="989" as="targetPoint" />
          </mxGeometry>
        </mxCell>
        <mxCell id="wN71H9yPLBmTXvymEIwc-100" value="NO" style="edgeLabel;resizable=0;html=1;;align=center;verticalAlign=middle;" connectable="0" vertex="1" parent="wN71H9yPLBmTXvymEIwc-99">
          <mxGeometry relative="1" as="geometry" />
        </mxCell>
      </root>
    </mxGraphModel>
  </diagram>
</mxfile>
